/* XPM */
static char * player_r_xpm[] = {
"32 32 121 2",
"  	c None",
". 	c #000000",
"+ 	c #444444",
"@ 	c #949494",
"# 	c #B8B8B8",
"$ 	c #CDCDCD",
"% 	c #CFCFCF",
"& 	c #BEBEBE",
"* 	c #8F8F8F",
"= 	c #161616",
"- 	c #555555",
"; 	c #FCFCFC",
"> 	c #FFFFFF",
", 	c #FDFDFD",
"' 	c #E2E2E2",
") 	c #727272",
"! 	c #595959",
"~ 	c #E9E9E9",
"{ 	c #FEFEFE",
"] 	c #F3F3F3",
"^ 	c #696969",
"/ 	c #101010",
"( 	c #DDDDDD",
"_ 	c #E3E3E3",
": 	c #2A2A2A",
"< 	c #909090",
"[ 	c #EAEAEA",
"} 	c #E8E8E8",
"| 	c #ADADAD",
"1 	c #C7C7C7",
"2 	c #BCBCBC",
"3 	c #616161",
"4 	c #F8F8F8",
"5 	c #0D0D0D",
"6 	c #EDEDED",
"7 	c #ECECEC",
"8 	c #313131",
"9 	c #E1E1E1",
"0 	c #373737",
"a 	c #4B4B4B",
"b 	c #FAFAFA",
"c 	c #D5D5D5",
"d 	c #787878",
"e 	c #6D6D6D",
"f 	c #252525",
"g 	c #E6E6E6",
"h 	c #4C4C4C",
"i 	c #E5E5E5",
"j 	c #AFAFAF",
"k 	c #747474",
"l 	c #121212",
"m 	c #F4F4F4",
"n 	c #212121",
"o 	c #010101",
"p 	c #CCCCCC",
"q 	c #929292",
"r 	c #F2F2F2",
"s 	c #565656",
"t 	c #1A1A1A",
"u 	c #D7D7D7",
"v 	c #F7F7F7",
"w 	c #404040",
"x 	c #F1F1F1",
"y 	c #F5F5F5",
"z 	c #FBFBFB",
"A 	c #E7E7E7",
"B 	c #797979",
"C 	c #A3A3A3",
"D 	c #B5B5B5",
"E 	c #BABABA",
"F 	c #CACACA",
"G 	c #AEAEAE",
"H 	c #828282",
"I 	c #202020",
"J 	c #848484",
"K 	c #868686",
"L 	c #474747",
"M 	c #070707",
"N 	c #505050",
"O 	c #585858",
"P 	c #131313",
"Q 	c #3B3B3B",
"R 	c #A4A4A4",
"S 	c #CBCBCB",
"T 	c #C4C4C4",
"U 	c #ABABAB",
"V 	c #464646",
"W 	c #3A3A3A",
"X 	c #5A5A5A",
"Y 	c #EEEEEE",
"Z 	c #BDBDBD",
"` 	c #969696",
" .	c #979797",
"..	c #AAAAAA",
"+.	c #C5C5C5",
"@.	c #E4E4E4",
"#.	c #393939",
"$.	c #1B1B1B",
"%.	c #8B8B8B",
"&.	c #EFEFEF",
"*.	c #8C8C8C",
"=.	c #989898",
"-.	c #C0C0C0",
";.	c #A1A1A1",
">.	c #838383",
",.	c #B3B3B3",
"'.	c #959595",
").	c #D9D9D9",
"!.	c #6E6E6E",
"~.	c #8A8A8A",
"{.	c #737373",
"].	c #A8A8A8",
"^.	c #232323",
"/.	c #676767",
"(.	c #050505",
"_.	c #717171",
":.	c #9E9E9E",
"<.	c #C6C6C6",
"[.	c #1D1D1D",
"}.	c #383838",
"|.	c #656565",
"                                                                ",
"                            . . . . . .                         ",
"                      . . + @ # $ % & * = .                     ",
"                    . - $ ; > > > > > , ' ) .                   ",
"                  . ! ~ > > > > > > > { { ] ^ .                 ",
"                  / ( { > > > > > { { { > { _ :                 ",
"                . < , { > > > > > { { { [ } { | .               ",
"                . 1 , { > > > > > { { { 2 3 4 } .               ",
"                5 6 { > > > > > > { { { 7 8 9 4 0               ",
"              . a , { > > > > > > { { { b ! c ; d               ",
"              . e , > > > > > > > { { { ( f g , <               ",
"              . h , { > > > > > > { { { i j { ; k               ",
"                l m { { > > > > > { { { > { { m n               ",
"                o p { { > > > > > { { > > { { & .               ",
"                . q , { { > > > > > { > { { r s                 ",
"                  t u , { { { { > > > > { v d .                 ",
"                  . w % x y z { { { { { A B .                   ",
"                    . 5 d C D E 1 F G H I .                     ",
"                    . J K L M . . . N q O 3 .                   ",
"                    P Q R S $ F 2 $ T U V J W                   ",
"                    X Y ' Z j `  ...+.@.T #.$.                  ",
"                    %.{ { { { , ; ; z ; &.*.X                   ",
"                  . =.{ { { { > > > > > -.;.>.                  ",
"                  . @ { { { > > > > > > ,.;.'..                 ",
"                  . < , { > > > > > > > ).!.~.                  ",
"                    {.z { > > > > > > > z H $.                  ",
"                    t +.4 > > > > > > > b ]..                   ",
"                      ^.- ( { > > > { _ /.(.                    ",
"                        . X z > > { ,  ..                       ",
"                          $.9 > > { z _.                        ",
"                          . :.&.b x <.[.                        ",
"                            . }.|.L . .                         "};
