/* XPM */
static char * player_l_xpm[] = {
"32 32 121 2",
"  	c None",
". 	c #000000",
"+ 	c #161616",
"@ 	c #8F8F8F",
"# 	c #BEBEBE",
"$ 	c #CFCFCF",
"% 	c #CDCDCD",
"& 	c #B8B8B8",
"* 	c #949494",
"= 	c #444444",
"- 	c #727272",
"; 	c #E2E2E2",
"> 	c #FDFDFD",
", 	c #FFFFFF",
"' 	c #FCFCFC",
") 	c #555555",
"! 	c #696969",
"~ 	c #F3F3F3",
"{ 	c #FEFEFE",
"] 	c #E9E9E9",
"^ 	c #595959",
"/ 	c #2A2A2A",
"( 	c #E3E3E3",
"_ 	c #DDDDDD",
": 	c #101010",
"< 	c #ADADAD",
"[ 	c #E8E8E8",
"} 	c #EAEAEA",
"| 	c #909090",
"1 	c #F8F8F8",
"2 	c #616161",
"3 	c #BCBCBC",
"4 	c #C7C7C7",
"5 	c #373737",
"6 	c #E1E1E1",
"7 	c #313131",
"8 	c #ECECEC",
"9 	c #EDEDED",
"0 	c #0D0D0D",
"a 	c #787878",
"b 	c #D5D5D5",
"c 	c #FAFAFA",
"d 	c #4B4B4B",
"e 	c #E6E6E6",
"f 	c #252525",
"g 	c #6D6D6D",
"h 	c #747474",
"i 	c #AFAFAF",
"j 	c #E5E5E5",
"k 	c #4C4C4C",
"l 	c #212121",
"m 	c #F4F4F4",
"n 	c #121212",
"o 	c #CCCCCC",
"p 	c #010101",
"q 	c #565656",
"r 	c #F2F2F2",
"s 	c #929292",
"t 	c #F7F7F7",
"u 	c #D7D7D7",
"v 	c #1A1A1A",
"w 	c #797979",
"x 	c #E7E7E7",
"y 	c #FBFBFB",
"z 	c #F5F5F5",
"A 	c #F1F1F1",
"B 	c #404040",
"C 	c #202020",
"D 	c #828282",
"E 	c #AEAEAE",
"F 	c #CACACA",
"G 	c #BABABA",
"H 	c #B5B5B5",
"I 	c #A3A3A3",
"J 	c #585858",
"K 	c #505050",
"L 	c #070707",
"M 	c #474747",
"N 	c #868686",
"O 	c #848484",
"P 	c #3A3A3A",
"Q 	c #464646",
"R 	c #ABABAB",
"S 	c #C4C4C4",
"T 	c #CBCBCB",
"U 	c #A4A4A4",
"V 	c #3B3B3B",
"W 	c #131313",
"X 	c #1B1B1B",
"Y 	c #393939",
"Z 	c #E4E4E4",
"` 	c #C5C5C5",
" .	c #AAAAAA",
"..	c #979797",
"+.	c #969696",
"@.	c #BDBDBD",
"#.	c #EEEEEE",
"$.	c #5A5A5A",
"%.	c #8C8C8C",
"&.	c #EFEFEF",
"*.	c #8B8B8B",
"=.	c #838383",
"-.	c #A1A1A1",
";.	c #C0C0C0",
">.	c #989898",
",.	c #959595",
"'.	c #B3B3B3",
").	c #8A8A8A",
"!.	c #6E6E6E",
"~.	c #D9D9D9",
"{.	c #737373",
"].	c #A8A8A8",
"^.	c #050505",
"/.	c #676767",
"(.	c #232323",
"_.	c #717171",
":.	c #1D1D1D",
"<.	c #C6C6C6",
"[.	c #9E9E9E",
"}.	c #656565",
"|.	c #383838",
"                                                                ",
"                        . . . . . .                             ",
"                    . + @ # $ % & * = . .                       ",
"                  . - ; > , , , , , ' % ) .                     ",
"                . ! ~ { { , , , , , , , ] ^ .                   ",
"                / ( { , { { { , , , , , { _ :                   ",
"              . < { [ } { { { , , , , , { > | .                 ",
"              . [ 1 2 3 { { { , , , , , { > 4 .                 ",
"              5 1 6 7 8 { { { , , , , , , { 9 0                 ",
"              a ' b ^ c { { { , , , , , , { > d .               ",
"              | > e f _ { { { , , , , , , , > g .               ",
"              h ' { i j { { { , , , , , , { > k .               ",
"              l m { { , { { { , , , , , { { m n                 ",
"              . # { { , , { { , , , , , { { o p                 ",
"                q r { { , { , , , , , { { > s .                 ",
"                . a t { , , , , { { { { > u v                   ",
"                  . w x { { { { { y z A $ B .                   ",
"                    . C D E F 4 G H I a 0 .                     ",
"                  . 2 J s K . . . L M N O .                     ",
"                  P O Q R S % 3 F % T U V W                     ",
"                  X Y S Z `  ...+.i @.; #.$.                    ",
"                  $.%.&.' y ' ' > { { { { *.                    ",
"                  =.-.;., , , , , { { { { >..                   ",
"                . ,.-.'., , , , , , { { { * .                   ",
"                  ).!.~., , , , , , , { > | .                   ",
"                  X D y , , , , , , , { y {.                    ",
"                  . ].c , , , , , , , 1 ` v                     ",
"                    ^./.( { , , , { _ ) (.                      ",
"                      . ..> { , , y $..                         ",
"                        _.y { , , 6 X                           ",
"                        :.<.A c &.[..                           ",
"                        . . M }.|..                             "};
