/* XPM */
static char *_8fd0891b806488d8c3625fcd84ba6e80azJtrpBhaLbv3F3[] = {
/* columns rows colors chars-per-pixel */
"32 32 122 2 ",
"   c #534847",
".  c #554A48",
"X  c #574C4A",
"o  c #5B4F4B",
"O  c #5C4F4C",
"+  c #5C504C",
"@  c #5D5350",
"#  c #61544F",
"$  c #635650",
"%  c #645751",
"&  c #655851",
"*  c #635854",
"=  c #645A56",
"-  c #685B54",
";  c #695C54",
":  c #695C55",
">  c #6C5F56",
",  c #635B59",
"<  c #665D5A",
"1  c #6A5F58",
"2  c #685F5B",
"3  c #6D6057",
"4  c #67605E",
"5  c #6B605A",
"6  c #6A615D",
"7  c #6E635D",
"8  c #6C635E",
"9  c #70635A",
"0  c #71645B",
"q  c #72655D",
"w  c #73665C",
"e  c #74675D",
"r  c #76695E",
"t  c #786B5F",
"y  c #676160",
"u  c #6B6361",
"i  c #6B6461",
"p  c #6C6462",
"a  c #6E6662",
"s  c #6E6764",
"d  c #6F6864",
"f  c #6A676D",
"g  c #6C686F",
"h  c #766A61",
"j  c #706865",
"k  c #726965",
"l  c #726B67",
"z  c #736C67",
"x  c #776C65",
"c  c #756D67",
"v  c #786B61",
"b  c #7B6E63",
"n  c #746D68",
"m  c #776E68",
"M  c #766F69",
"N  c #7D7064",
"B  c #7F7265",
"V  c #7A706A",
"C  c #79726B",
"Z  c #7C726A",
"A  c #7C746C",
"S  c #7F756D",
"D  c #6D6A71",
"F  c #6F6B73",
"G  c #726E76",
"H  c #78757D",
"J  c #7B777F",
"K  c #807366",
"L  c #817467",
"P  c #82756A",
"I  c #81766D",
"U  c #83786F",
"Y  c #877A6E",
"T  c #887B6F",
"R  c #847B71",
"E  c #877C71",
"W  c #8B7F73",
"Q  c #887F75",
"!  c #8D8073",
"~  c #888074",
"^  c #8B8176",
"/  c #8E8174",
"(  c #918475",
")  c #928577",
"_  c #908578",
"`  c #928578",
"'  c #938678",
"]  c #948779",
"[  c #92887A",
"{  c #96897B",
"}  c #948A7B",
"|  c #978A7B",
" . c #978A7C",
".. c #968C7D",
"X. c #988B7D",
"o. c #9B8E7F",
"O. c #9C8F7F",
"+. c #9E917F",
"@. c #7D7A82",
"#. c #7E7B83",
"$. c #7F7C85",
"%. c #817E86",
"&. c #84828A",
"*. c #87848D",
"=. c #9C8F80",
"-. c #9B9180",
";. c #9F9281",
":. c #9F9282",
">. c #A09382",
",. c #A19483",
"<. c #A29584",
"1. c #A39684",
"2. c #A49784",
"3. c #A49785",
"4. c #A59985",
"5. c #A59886",
"6. c #A79A87",
"7. c #A89B87",
"8. c #A99C88",
"9. c #AB9E89",
"0. c #AEA18B",
"q. c #AFA28B",
/* pixels */
"! / / ! ! / / ! n  .W ( W W W W W ) a O./ / / / W / / / a :./ W ",
"$ & % $ $ % + & = * % % % % % # O & 1 & & & $ & $ # + & , $ = # ",
":.5.,.:.:.:.n 9.2.>.7.<.<.>.:.o.V 9.2.2.,.,.,.,.:./ ~ 9.2.>.7.>.",
"o.o.o.o.o.] k 2.o.=.=.O.O.O.o.` k =.=.=.o.o.=.=.o.E R =.O.o.O.O.",
"o.o.o.o.X.] k ,.O.| =.X.X.O.O.) V :.=.=. .o.o. .=.E R =.X.o.o.X.",
"W ! ! ! / / d | ! ( / / W / W / s ` / / / / ) / W E I ! W ( ! W ",
"o - ; & ; & < & O # - - % - - % < $ $ O $ ; = & = % 1 % O ; - & ",
"C 7.5.:.5.:.:.>.Z >.<.<.>.>.2.:.,.<.:.S  .,.,.,.2.>.>.X.a q.2.>.",
"k :.o.o.-.o.o.o.x } -.=.=.O.O.O.=.=.=.Z W =.=.=.=.o.O.| u 2.=.O.",
"c o. .|  .o.o.| x  .o. .X.X.X.X. .X.=.Z W X.X.X.X.X.X.X.u 2.X.X.",
"z ` / / / / / ! z ` W / / / ( W W ( W Z ^ W W ( / / / / u O./ / ",
"8 ; ; + $ 3 ; ; 5 1 ; % - o - > > > % q - 1 - . > > - - 6 ; - - ",
",.:.:.S | ,.,.,.:.,.>.=.>.n ,.2.2.<.=.<.>.:.+.u 9.>.>.>.>.:.:.>.",
"o.o.o.Z / o.o.o.O.-.O.O.O.k O.O.=.=.X.=.=.O. .4 2.o.O.O.O.o.o.o.",
" .o.| Z ^  ... . .X.| X.| j O.| { X.X.X.X.X.` 2 <.X.X.| | X.| | ",
"! / ! C ^ / ! ! W / / W W c ] W W ( W W W ( W u :.W ( W W ( W W ",
"> - - = 8 = -   0 > - 0 5 7 ; ; >   1 0 % - 1 2 1 > - O 1 - 1 q ",
">.>.>.o.,.:.:.u 9.>.:.>.>.=.:.=.O.k 9.<.o.:.>.O.>.:. .m 9.:.>.>.",
"o.o.O.o.O.O. .u ,.+.O.O.=.O.=.o.| a >.=.o.o.O.O.O.O.` k =.o.O.o.",
"] | | | | | ` u ,.| | ] | | ] | ) j 2.| | | | X.| | ` j O.| | | ",
"T T T T T T T 1 o.T T T E T T T T 2 ) T T T R E T T Y k ) Y T T ",
"0 r q O t t 0 C q w 3 w = @ r e e V 0 0 e t * - t r 0 Z 0 0 1 0 ",
"=.:.| x 2.:.O.:.=.O.o.O./ R :.o.:.:.o.O.O.>.Y W >.:.=.>.=.O.=.O.",
"=.=.` l >.o.o.O.O.o.o.O./ V -.o.O.o.o.o.O.O.I W o.o.o.o.O.O.O.O.",
"| | ) k O.| ] ] | | ` ` ! A  .| |  . .` | | I E ] | | ] | | ] ] ",
"P B P 7 Y P P P P P P P Z z Y P P P P P P P x C P P P P P P P P ",
"n b b c K v B b = r K r b Y b q B B @ B h B e K b b b b + L b b ",
":.o.O.O.O.o.O.o.z +.:.o.=.+.+.o.o.o.a 2.=.:.o.o.o.O.o.| s 9.O.=.",
"o.o.o.O.o.o.o.o.n ] =.o.o.o.=.=.o. .a 2.o.o.o.o.=.-.=. .u >.o.o.",
"` X.( | | ] | ` z `  .| | `  .` | ` a :.]  .] | ` ` ` ) a :.) | ",
"U U I U I I I U k ~ U U I I U U U I 2 Q U U U I R I I E 6 ` I R ",
"*.&.%.G @.%.&.@.F #.@.%.%.D %.*.@.@.g &.*.%.%.f *.@.*.H D *.@.@."
};
