/* XPM */
static char *ac76c1aa97d547b2b63c5ade4b13ce15J8kC0Hz5vwUe7Trt[] = {
/* columns rows colors chars-per-pixel */
"32 32 194 2 ",
"   c None",
".  c gray48",
"X  c #935129",
"o  c #945129",
"O  c #965229",
"+  c #98532A",
"@  c #9B552A",
"#  c #9D562B",
"$  c #A55A2D",
"%  c #A65B2D",
"&  c #A75B2D",
"*  c #A85C2D",
"=  c #A95C2D",
"-  c #AD5E2E",
";  c #AF5F2F",
":  c #B1602F",
">  c #B2612F",
",  c #BC6632",
"<  c #BD6632",
"1  c #C06832",
"2  c #C46A33",
"3  c #C66B34",
"4  c #CA6D35",
"5  c #C66D38",
"6  c #CC7038",
"7  c #D0763F",
"8  c #A76A46",
"9  c #B87044",
"0  c #A87150",
"q  c #CE7C4C",
"w  c #D17741",
"e  c #D27943",
"r  c #D37A44",
"t  c #BB9279",
"y  c #D7804C",
"u  c #D8824E",
"i  c #CE8153",
"p  c #DC8754",
"a  c #DC8B5A",
"s  c #D5936B",
"d  c #E59564",
"f  c #E79868",
"g  c gray51",
"h  c gray52",
"j  c gray53",
"k  c #8B8B8B",
"l  c gray55",
"z  c #8E8E8E",
"x  c gray56",
"c  c gray57",
"v  c #929292",
"b  c #939393",
"n  c gray58",
"m  c gray59",
"M  c #989898",
"N  c gray60",
"B  c #9A9A9A",
"V  c #9B9B9B",
"C  c gray61",
"Z  c #9D9D9D",
"A  c #9F9F9F",
"S  c #A0A0A0",
"D  c gray63",
"F  c #A2A2A2",
"G  c #A4A4A4",
"H  c #A5A5A5",
"J  c gray65",
"K  c gray66",
"L  c #A9A9A9",
"P  c gray67",
"I  c #AEAEAE",
"U  c gray69",
"Y  c #B0B0B1",
"T  c #B1B1B1",
"R  c gray70",
"E  c #B4B4B4",
"W  c #B4B4B5",
"Q  c gray71",
"!  c #B6B6B6",
"~  c #B7B7B7",
"^  c gray72",
"/  c #B8B8B9",
"(  c #B9B9B9",
")  c gray73",
"_  c #BABABB",
"`  c #BBBBBB",
"'  c #BCBCBC",
"]  c gray74",
"[  c gray",
"{  c gray75",
"}  c #C5A48F",
"|  c #C9AD9C",
" . c #DCB39C",
".. c #C5B0A4",
"X. c #D5BAA9",
"o. c #D5BBAD",
"O. c #D6BDAE",
"+. c #DDBCA9",
"@. c #DBBEAC",
"#. c #D7C0B2",
"$. c #DDC1B0",
"%. c #D9C2B5",
"&. c #DAC5B8",
"*. c #DECABE",
"=. c #DECBBF",
"-. c #E4C8B8",
";. c #BFBFC0",
":. c #C0C0C0",
">. c #C1C1C1",
",. c #C1C1C2",
"<. c gray76",
"1. c #C3C3C3",
"2. c #C3C3C4",
"3. c gray77",
"4. c #C5C5C5",
"5. c #C5C5C6",
"6. c #C6C6C6",
"7. c #C6C6C7",
"8. c #C8C8C8",
"9. c gray79",
"0. c #CACACA",
"q. c #CACACB",
"w. c #CBCBCC",
"e. c #CBCBCD",
"r. c gray80",
"t. c #CCCCCD",
"y. c #CECECE",
"u. c #CECECF",
"i. c gray81",
"p. c #D0D0D0",
"a. c gray82",
"s. c #D1D1D2",
"d. c #D2D2D2",
"f. c #D2D2D3",
"g. c LightGray",
"h. c #D5D5D6",
"j. c gray84",
"k. c #D7D7D7",
"l. c #D8D8D8",
"z. c gray85",
"x. c #DADADA",
"c. c #DADADB",
"v. c gray86",
"b. c #DFDCDA",
"n. c #DADADC",
"m. c gainsboro",
"M. c #DDDDDD",
"N. c gray87",
"B. c #DFDFDF",
"V. c #E0CBC1",
"C. c #E5D0C4",
"Z. c #E3D2C8",
"A. c #E3DBD6",
"S. c #E6DBD6",
"D. c #E1DCDA",
"F. c #F2DED2",
"G. c #DFDFE1",
"H. c gray88",
"J. c #E0E0E1",
"K. c #E0E0E2",
"L. c #E2E2E2",
"P. c #E2E2E3",
"I. c #E3E3E4",
"U. c gray90",
"Y. c #E5E5E7",
"T. c #E7E7E7",
"R. c #EBE5E2",
"E. c #E7E7E9",
"W. c #E8E8E9",
"Q. c #E9E9E9",
"!. c #EAEAEA",
"~. c #EAEAEB",
"^. c gray92",
"/. c #ECECEC",
"(. c #ECECED",
"). c gray93",
"_. c #EDEDEE",
"`. c #EEEEEF",
"'. c #EFEFEF",
"]. c #F0EBE8",
"[. c #EEEEF0",
"{. c #EFEFF0",
"}. c gray94",
"|. c #F1F1F1",
" X c #F1F1F2",
".X c #F4F4F4",
"XX c gray96",
"oX c #F5F5F6",
"OX c #F6F6F6",
"+X c #F6F6F7",
"@X c #F8F6F4",
"#X c #F8F8F9",
"$X c #FBFBFB",
"%X c #FCFCFD",
/* pixels */
"                                                                ",
"                                                                ",
"                                                                ",
"                                                                ",
"                                                                ",
"                                                                ",
"                                                                ",
"                            >.>.>.>.>.3.                        ",
"                      ( 2.M.`. X|. X XQ.k.{                     ",
"                      j.U.}./.Q.^.^.^.^.`.K.p.                  ",
"                    9.U.].Z.&.O.%.*.*.C.F.@XB.2.                ",
"                  >.OXQ...O < 4 7 d f p q S.+Xm.x I ( (         ",
"                  >.OX| 0 % > 1 6 r r y a s -.g.x d.Q.K.{       ",
"                ( >.OXt @ - % - < < 3 7 y 6  .y.x r.`.Q.`       ",
"              { { { `.} 8 % + # * * < 2 5 i +.y.x K y.K.E       ",
"            ( y.9.{ x.R.X.O O X O O * > 9 V.D.3.x v ;.n.N       ",
"            ( K.l.( 3.n.D.O.O.O.O.O.$.@.#.v.a.E x F 4.a.n       ",
"            ( Q.W.8.( 8.M.#X#X+X.X.X.X`.I.f.' J C / 1.' n       ",
"            ( Q.OXU.{ ^ 9.W.E.B.x.x.x.k.f._ S V ! y.R z         ",
"            ( Q.%X[.G { i.3.3.2.#.>.>.E F N b v N S M l         ",
"            H j..X+X3.( { 9.i.y.7.e.] Y D x N G G G N k         ",
"            x ( M.#X X2.Y 9.d.y.7.7./ I P Z Y ;.( T C h         ",
"              b _ [.#X[.w.b n m n n n x m Y q.u.( V .           ",
"                A W W.OX'.x.9.E P P P / u.s.q.! C .             ",
"                  N 2.n.Q.+X`.M.g.w.w.j.L.a.` D h               ",
"                    x L 3.K.`. X/.B.B.x.a.` D j                 ",
"                          C C C Z B V N m                       ",
"                                                                ",
"                                                                ",
"                                                                ",
"                                                                ",
"                                                                "
};
