/* XPM */
static char *_43b4531b1ba497ae1c14a1911304d1ctsyuezTsIeV64Vuz[] = {
/* columns rows colors chars-per-pixel */
"32 32 28 1 ",
"  c #2D2D2D",
". c #2F2F2F",
"X c gray19",
"o c gray21",
"O c gray23",
"+ c #3F3F3F",
"@ c #434343",
"# c gray28",
"$ c #4B4B4B",
"% c #4E4E4E",
"& c #505050",
"* c #565656",
"= c #5A5A5A",
"- c #5D5D5D",
"; c gray39",
": c #676767",
"> c #686868",
", c #6F6F6F",
"< c gray44",
"1 c #747474",
"2 c gray47",
"3 c gray49",
"4 c #838383",
"5 c #848484",
"6 c gray54",
"7 c #8E8E8E",
"8 c #929292",
"9 c #959595",
/* pixels */
"&-,<,,,=><<,,,>=>,,,,,,-><,,,,;&",
"-16899916999997,899999817999851;",
">744566>4787875;5778776:4787745>",
">87&#&*+=::::;*O-:::::*@=:::,98>",
":87%O@$O#%&&&%$o$%%&&&%o$&&&=88:",
"-54#ooOXO+++@+O.O+++++@XO+++%44;",
"*11@..XXoooXoOOoOOo.oOOX$%#++,1=",
":96$oOO++##X$%%%%%#o$&%@56<;#68:",
":87#OOOOO@@X@$####@o###+52,;#68:",
":87#.oXoXOOXO++++++XO+++31>;#68>",
":87#.....XXXooo.oOo#@OOO<>:;#78:",
"-43@oOO.oOOO+@@X$$+1>&%+;:;=@25-",
"&<<+XOO.oOOOO@@X##O,;&*@31>:#,<*",
"-76@XXo.XoXoXoO.OOo==&&@31>;#57:",
"-87#.. .X...X.oOXoX&%%$+31,;$68>",
"-87#....OooXoX*&#@X#@@@+31>;#68>",
"-86# ...XoX.XX&$##o=**&@<,:;#68>",
"*44@ .. ......%##@o==*&+;;-=@35;",
"%<,@    .ooXX.@@++o==&%@21>;#,1=",
"=96@    .#@Oo.oOOoo=**&@3<,:#57:",
"-87#..  .@+OO.###@o%&%$+31>:#68>",
"-86#..  .+OOOX#$#@X@@@++31>;#68>",
"-87#.....Ooo.X#$#@o*&&&+<,:;$68:",
"=54@+O........###@o==&*+-;-=@35;",
"%<<@+ooX.OOoo.#@@+o==&&@1<>:@,1*",
"-86#oXXX.+OOo.ooOoo==*&@31>;$58:",
"-87#XXXX.++OO.$#@@O%%$$+3<,:#68:",
"-87#.....OoX..+@++XXOooO>;=&#68:",
"-85=$$#@#$$$$$#@#$#$$$#@$%$%&47:",
"-556777<5877776,5877777<5777744:",
"&>58888<5887786>5888787<687877,=",
"#=;::::&-::::::&;;:::::*-:::::-$"
};
