/* XPM */
static char *_61b48600ece4f5ef72a456384a5088bZ5ANOdKrywl3re3g[] = {
/* columns rows colors chars-per-pixel */
"32 32 91 1 ",
"  c #292627",
". c #292728",
"X c #2A2829",
"o c #2E2C2E",
"O c #2F2C2E",
"+ c #2E2D2F",
"@ c #362727",
"# c #302D2F",
"$ c #312D2F",
"% c #392929",
"& c #312E30",
"* c #302F31",
"= c #3F2F31",
"- c #313133",
"; c #323234",
": c #353537",
"> c #363437",
", c #38383A",
"< c #3D3B3C",
"1 c #403233",
"2 c #413234",
"3 c #433637",
"4 c #463A3B",
"5 c #4C3D3E",
"6 c #3F3F40",
"7 c #413F40",
"8 c #404041",
"9 c #434142",
"0 c #434343",
"q c #4D4141",
"w c #4E4141",
"e c #474648",
"r c #484749",
"t c #48484A",
"y c #49494B",
"u c #514444",
"i c #505051",
"p c #545153",
"a c gray34",
"s c #575758",
"d c #5A5A5A",
"f c #5B585C",
"g c #5C585D",
"h c #5E5B5F",
"j c #615D63",
"k c #666369",
"l c #676369",
"z c #68656A",
"x c #686868",
"c c #726F74",
"v c #737076",
"b c #747176",
"n c #767277",
"m c #777479",
"M c #78757B",
"N c #7C787E",
"B c #7D7A80",
"V c #B0B0B2",
"C c #BABABC",
"Z c #C0BFC1",
"A c #C2C1C4",
"S c #C7C6C7",
"D c #C8C7CA",
"F c #D0C4C5",
"G c #CFCFD1",
"H c #D3D3D5",
"J c #D5D5D7",
"K c #DFD3D4",
"L c #D7D7D9",
"P c #D8D8D9",
"I c #D9D9DB",
"U c #DBDBDC",
"Y c #E7DBDC",
"T c #EADEDE",
"R c #EBDFDF",
"E c #DEDDE0",
"W c gray89",
"Q c #E4E3E4",
"! c #E5E5E7",
"~ c #E7E7E9",
"^ c #E8E7E8",
"/ c #E8E8E9",
"( c #EAEAEB",
") c #EAEAEC",
"_ c #EBEBED",
"` c #EEEEF0",
"' c #F2F2F3",
"] c gray98",
"[ c #FBFBFB",
"{ c #FBFBFC",
"} c #FEFEFE",
/* pixels */
"j$            OX<CGJ~(__`{]'[}}]",
"gO       .   oX <CJ!____]]'[}}['",
"fO      ....oX  <Z!(__`]]'[}}['[",
"fO      ..XO    6G___`]]'{}}['[}",
"fO      XXOX   .eH__`]]'}}}]'[}}",
"fO       O.. XX-tH_`]]'[}}]'[}}}",
"fO     XOX   X--yH`]]'{}}]']}}}}",
"gO    XOX   X*-;yL]]']}}]'}}}}}}",
"f&X ..&..  .---;yW]'}}}]']}}}}}}",
"g*  .o.   .&-;-:dW'}}}]'}}}}}}}}",
"k&  &....X&-;;-8aU]}}]']}}}}}}}}",
"zOXO. ..X&---:88iW}}]'}}}}}}}}}}",
"z&o.....&--->98,s^}{']}}}}}}}}}}",
"z:.   .&---:87,8dQ['}}}}}}}}}}}}",
"f&.. .&---:78,80dW'[}}}}}}}}}}}}",
"k7<<7rryyississfxSWWQQQQQQWWW!WL",
"vVCAHHHHLWWUQQQQSp999999998999y8",
"cAHQ(__`]]'{}}}'U9          X$X ",
"MD~(((`]]']}}}']Q9         X$X  ",
"vL___`]]']}}]'}}Q9        .$.   ",
"vP__`]]'{}}[']}}Q9       XOX   X",
"vU_`]]'[}}['}}}}Q9      XOX   X&",
"nP`]]'[}}['[}}}}Q9     .OX   X&-",
"BE]]'[}}['[}}}}}Q9    X$X   X---",
"M~]'{}}]']}}}}}}Q7  ..#.   X*---",
"mQ'{}}}'}}}}}}}}Q7  .#.   .----:",
"nU{}}]']}}}}}}}}Q9 X#.   X----:9",
"m(}}}']}}}}}}}}}Q9.#X. .XO----96",
"M(}[']}}}}}}}}}}Q9OX.  .----,66,",
"M^[']}}}}}}}}}}}Qy.....----:06,8",
"N^'[}}}}}}}}}}}]U7. .X----:88,80",
"nFYTTQTQRRRRRQTKF5@@%=2223qq4quq"
};
