/* XPM */
static char * player_b_xpm[] = {
"32 32 127 2",
"  	c None",
". 	c #000000",
"+ 	c #1C1C1C",
"@ 	c #8C8C8C",
"# 	c #C7C7C7",
"$ 	c #DBDBDB",
"% 	c #DCDCDC",
"& 	c #E1E1E1",
"* 	c #BDBDBD",
"= 	c #979797",
"- 	c #3C3C3C",
"; 	c #8F8F8F",
"> 	c #E6E6E6",
", 	c #FEFEFE",
"' 	c #FFFFFF",
") 	c #F3F3F3",
"! 	c #B7B7B7",
"~ 	c #3F3F3F",
"{ 	c #BEBEBE",
"] 	c #FDFDFD",
"^ 	c #DDDDDD",
"/ 	c #313131",
"( 	c #939393",
"_ 	c #B8B8B8",
": 	c #080808",
"< 	c #1D1D1D",
"[ 	c #E3E3E3",
"} 	c #F1F1F1",
"| 	c #5F5F5F",
"1 	c #676767",
"2 	c #F5F5F5",
"3 	c #BFBFBF",
"4 	c #020202",
"5 	c #959595",
"6 	c #F8F8F8",
"7 	c #D8D8D8",
"8 	c #222222",
"9 	c #989898",
"0 	c #DFDFDF",
"a 	c #292929",
"b 	c #969696",
"c 	c #636363",
"d 	c #F9F9F9",
"e 	c #D6D6D6",
"f 	c #1F1F1F",
"g 	c #E4E4E4",
"h 	c #F2F2F2",
"i 	c #BCBCBC",
"j 	c #010101",
"k 	c #9D9D9D",
"l 	c #FBFBFB",
"m 	c #EAEAEA",
"n 	c #929292",
"o 	c #2C2C2C",
"p 	c #EFEFEF",
"q 	c #3E3E3E",
"r 	c #4D4D4D",
"s 	c #FAFAFA",
"t 	c #EDEDED",
"u 	c #D9D9D9",
"v 	c #515151",
"w 	c #3D3D3D",
"x 	c #C8C8C8",
"y 	c #EEEEEE",
"z 	c #FCFCFC",
"A 	c #F4F4F4",
"B 	c #F0F0F0",
"C 	c #ABABAB",
"D 	c #060606",
"E 	c #2A2A2A",
"F 	c #848484",
"G 	c #A7A7A7",
"H 	c #A5A5A5",
"I 	c #999999",
"J 	c #898989",
"K 	c #686868",
"L 	c #424242",
"M 	c #D3D3D3",
"N 	c #BBBBBB",
"O 	c #717171",
"P 	c #606060",
"Q 	c #7F7F7F",
"R 	c #8D8D8D",
"S 	c #A9A9A9",
"T 	c #C6C6C6",
"U 	c #6A6A6A",
"V 	c #888888",
"W 	c #CBCBCB",
"X 	c #E2E2E2",
"Y 	c #C5C5C5",
"Z 	c #7D7D7D",
"` 	c #090909",
" .	c #ADADAD",
"..	c #C0C0C0",
"+.	c #C1C1C1",
"@.	c #DEDEDE",
"#.	c #ECECEC",
"$.	c #656565",
"%.	c #F7F7F7",
"&.	c #A3A3A3",
"*.	c #252525",
"=.	c #CECECE",
"-.	c #0E0E0E",
";.	c #626262",
">.	c #E0E0E0",
",.	c #1E1E1E",
"'.	c #8E8E8E",
").	c #282828",
"!.	c #8A8A8A",
"~.	c #404040",
"{.	c #E5E5E5",
"].	c #E9E9E9",
"^.	c #5D5D5D",
"/.	c #181818",
"(.	c #070707",
"_.	c #4F4F4F",
":.	c #4E4E4E",
"<.	c #B0B0B0",
"[.	c #3B3B3B",
"}.	c #767676",
"|.	c #CFCFCF",
"1.	c #CCCCCC",
"2.	c #D0D0D0",
"3.	c #030303",
"4.	c #050505",
"5.	c #040404",
"6.	c #0C0C0C",
"                                                                ",
"                          . . . . . . .                         ",
"                      . + @ # $ % & * = - .                     ",
"                    . ; > , ' ' ' ' ' ' ) ! ~                   ",
"                  . { ] ' ' ' ' ' ' ' ' ' ' ^ /                 ",
"                . ( ] ' ' ' ' ' ' ' ' ' ' ' ' _ :               ",
"                < [ ' ' ' ' ' ' ' ' ' ' ' ' ' } |               ",
"                1 , ' ' ' ' ' ' ' ' ' ' ' ' ' 2 3 4             ",
"                5 ' ' ' ' ' ' ' ' ' ' ' ' ' ' 6 7 8             ",
"              . 9 ' ' ' ' ' ' ' ' ' ' ' ' ' ' ] 0 a             ",
"                b ' ' ' ' ' ' ' ' ' ' ' ' ' ' , 0 a             ",
"                c , ' ' ' ' ' ' ' ' ' ' ' ' , d e f             ",
"                . g ' ' ' ' ' ' ' ' ' ' ' ' , h i j             ",
"                . k ' ' ' ' ' ' ' ' ' ' ' , l m n .             ",
"                  o g ' ' ' ' ' ' ' ' ' , , p 7 q               ",
"                  . r 0 ' ' ' ' , , , , s t u v .               ",
"                    . w x y l z 6 6 A B $ C w .                 ",
"                      . D E F G H I J K + . .                   ",
"                    . L M N @ O c P Q R S T U .                 ",
"                    / ! 1 V W 7 7 X g Y S K Z `                 ",
"                  . F , l t 3  .....+.T @.s #.$.                ",
"                  . ..' ' ' ' ' ' ' ' ' ' ' %.&..               ",
"                  . #.' ' ' ' ' ' ' ' ' ' ' l Y j               ",
"                  *.l ' ' ' ' ' ' ' ' ' ' ' ' =.-.              ",
"                  ;.] ' ' ' ' ' ' ' ' ' ' ' ' >.,.              ",
"                  '.' ' ' ' ' ' ' ' ' ' ' ' ' y ).              ",
"                  !.' ' ' ' ' ' ' ' ' ' ' ' ' h ~.              ",
"                . '.' ' ' ' ' {.@.]., ' ' ' ' h ^.              ",
"                  !.' ' ' ' i /.. (.O g ' ' ' y _.              ",
"                  :.l ' ' ' F .     . <.6 ' z ^ [.              ",
"                  . }.|.% 1.o         ,.N @.2.9 .               ",
"                    . 3.4.5..         . 3.6.` .                 "};
