/* XPM */
static char * player_f_xpm[] = {
"32 32 145 2",
"  	c None",
". 	c #000000",
"+ 	c #5D5D5D",
"@ 	c #B5B5B5",
"# 	c #E0E0E0",
"$ 	c #E4E4E4",
"% 	c #DDDDDD",
"& 	c #B2B2B2",
"* 	c #787878",
"= 	c #131313",
"- 	c #515151",
"; 	c #C6C6C6",
"> 	c #FCFCFC",
", 	c #FFFFFF",
"' 	c #898989",
") 	c #010101",
"! 	c #626262",
"~ 	c #F0F0F0",
"{ 	c #FAFAFA",
"] 	c #8F8F8F",
"^ 	c #101010",
"/ 	c #DFDFDF",
"( 	c #ECECEC",
"_ 	c #5A5A5A",
": 	c #8A8A8A",
"< 	c #EFEFEF",
"[ 	c #F6F6F6",
"} 	c #BBBBBB",
"| 	c #FDFDFD",
"1 	c #B9B9B9",
"2 	c #C2C2C2",
"3 	c #AAAAAA",
"4 	c #7F7F7F",
"5 	c #E2E2E2",
"6 	c #303030",
"7 	c #C9C9C9",
"8 	c #E7E7E7",
"9 	c #444444",
"0 	c #030303",
"a 	c #D6D6D6",
"b 	c #EAEAEA",
"c 	c #191919",
"d 	c #A3A3A3",
"e 	c #959595",
"f 	c #EBEBEB",
"g 	c #858585",
"h 	c #020202",
"i 	c #D7D7D7",
"j 	c #171717",
"k 	c #7B7B7B",
"l 	c #ABABAB",
"m 	c #F2F2F2",
"n 	c #8B8B8B",
"o 	c #D4D4D4",
"p 	c #FEFEFE",
"q 	c #919191",
"r 	c #7D7D7D",
"s 	c #CBCBCB",
"t 	c #3B3B3B",
"u 	c #F1F1F1",
"v 	c #D8D8D8",
"w 	c #6D6D6D",
"x 	c #646464",
"y 	c #F8F8F8",
"z 	c #2C2C2C",
"A 	c #070707",
"B 	c #D3D3D3",
"C 	c #EDEDED",
"D 	c #C5C5C5",
"E 	c #050505",
"F 	c #696969",
"G 	c #F5F5F5",
"H 	c #F4F4F4",
"I 	c #E1E1E1",
"J 	c #6C6C6C",
"K 	c #6A6A6A",
"L 	c #EEEEEE",
"M 	c #6E6E6E",
"N 	c #555555",
"O 	c #C4C4C4",
"P 	c #F3F3F3",
"Q 	c #A7A7A7",
"R 	c #4A4A4A",
"S 	c #545454",
"T 	c #1A1A1A",
"U 	c #505050",
"V 	c #757575",
"W 	c #4E4E4E",
"X 	c #343434",
"Y 	c #414141",
"Z 	c #636363",
"` 	c #3C3C3C",
" .	c #CACACA",
"..	c #CECECE",
"+.	c #A8A8A8",
"@.	c #2A2A2A",
"#.	c #272727",
"$.	c #B8B8B8",
"%.	c #CFCFCF",
"&.	c #CCCCCC",
"*.	c #838383",
"=.	c #111111",
"-.	c #E5E5E5",
";.	c #8D8D8D",
">.	c #767676",
",.	c #565656",
"'.	c #828282",
").	c #666666",
"!.	c #BCBCBC",
"~.	c #868686",
"{.	c #DCDCDC",
"].	c #2B2B2B",
"^.	c #999999",
"/.	c #F9F9F9",
"(.	c #C3C3C3",
"_.	c #474747",
":.	c #C8C8C8",
"<.	c #707070",
"[.	c #7C7C7C",
"}.	c #2E2E2E",
"|.	c #9D9D9D",
"1.	c #ACACAC",
"2.	c #F7F7F7",
"3.	c #454545",
"4.	c #B0B0B0",
"5.	c #939393",
"6.	c #6F6F6F",
"7.	c #7E7E7E",
"8.	c #DEDEDE",
"9.	c #717171",
"0.	c #9F9F9F",
"a.	c #D2D2D2",
"b.	c #D1D1D1",
"c.	c #989898",
"d.	c #9E9E9E",
"e.	c #CDCDCD",
"f.	c #080808",
"g.	c #878787",
"h.	c #040404",
"i.	c #1F1F1F",
"j.	c #676767",
"k.	c #484848",
"l.	c #9A9A9A",
"m.	c #4B4B4B",
"n.	c #A0A0A0",
"                                                                ",
"                        . . . . . .                             ",
"                  . . + @ # # $ % & * =                         ",
"                . - ; > , , , , , , , % ' )                     ",
"              . ! ~ , , , , , , , , , , { ] .                   ",
"              ^ / , , , , , , , , , , , , ( _                   ",
"            . : , , , , < [ , , , # } | , { 1 .                 ",
"            . 2 , , , , 3 4 | , , 5 6 7 , | 8 9                 ",
"            0 a , , , , b c / , , , d e , , f g                 ",
"            h i , , , , f j / , , | k l , , m n                 ",
"            ) o , , , p q r | , , s t f , p u :                 ",
"            . @ , , , , v ~ , , , ( 5 , , p f w                 ",
"              x | , , , , , , , , , , , p y # z                 ",
"              A B , , , , , , , , , , , p C D E                 ",
"              . F G , , , , , , , , p p H I J .                 ",
"                . K L , , , p p p p { < # M .                   ",
"                  . N O / { [ P m I B Q t .                     ",
"                  . R S T U V - W X T Y Z )                     ",
"                  ` N  ...+.@.#.V $.%.&.*.=.                    ",
"                . & -.;.>.q ,.'.+ ).w M !.~..                   ",
"                E {., , y # ].x ^.~ y , /.(..                   ",
"                _.p , , , :.<.Q [.p , , , / }.                  ",
"              . |., , , , l |.1.).2., , , m 3.                  ",
"              . 4., , , , l 5.l 6.{ , , , P 7.                  ",
"              . :., , , , 8.9.0.5.p , , , H 5.                  ",
"              . B , , , , , |.! u , , , , { +..                 ",
"              . a., , , , , ~ v , , , , , { l .                 ",
"              . a., , , , b.c.d.; y , , , { & .                 ",
"              . e., , , L f.. . . g.2., , G 4..                 ",
"              . g [ , , a.h.      i.b.y /.f j..                 ",
"                . k.5.l.m..       . ` 5.n.>.E                   ",
"                    . . .             . .                       "};
